<svg xmlns="http://www.w3.org/2000/svg" xmlns:xlink="http://www.w3.org/1999/xlink" width="375" zoomAndPan="magnify" viewBox="0 0 281.25 89.999999" height="120" preserveAspectRatio="xMidYMid meet" version="1.0"><defs><g/></defs><g fill="#d9ccbc" fill-opacity="1"><g transform="translate(56.78144, 63.954012)"><g><path d="M 4.355469 0 L 27.570312 0 C 36.804688 0 41.945312 -4.179688 41.945312 -9.277344 C 41.945312 -12.066406 39.984375 -14.636719 36.847656 -16.332031 C 39.027344 -17.945312 40.289062 -20.035156 40.289062 -22.300781 C 40.289062 -27.398438 35.195312 -31.492188 26.046875 -31.492188 L 4.355469 -31.492188 Z M 11.28125 -18.46875 L 11.28125 -26.089844 L 26.046875 -26.089844 C 31.40625 -26.089844 33.410156 -24.347656 33.410156 -22.300781 C 33.410156 -20.253906 31.40625 -18.46875 26.046875 -18.46875 Z M 11.28125 -5.402344 L 11.28125 -13.066406 L 27.570312 -13.066406 C 32.972656 -13.066406 35.0625 -11.324219 35.0625 -9.277344 C 35.0625 -7.1875 32.972656 -5.402344 27.570312 -5.402344 Z M 11.28125 -5.402344 "/></g></g></g><g fill="#d9ccbc" fill-opacity="1"><g transform="translate(97.022859, 63.954012)"><g><path d="M 4.355469 0 L 11.28125 0 L 11.28125 -13.242188 L 22.519531 -13.242188 L 32.753906 0 L 41.160156 0 L 30.664062 -13.632812 C 36.894531 -14.765625 40.289062 -18.25 40.289062 -22.386719 C 40.289062 -27.484375 35.238281 -31.621094 26.046875 -31.621094 L 4.355469 -31.621094 Z M 11.28125 -18.640625 L 11.28125 -26.179688 L 26.046875 -26.179688 C 31.316406 -26.179688 33.410156 -24.480469 33.410156 -22.386719 C 33.410156 -20.339844 31.316406 -18.640625 26.046875 -18.640625 Z M 11.28125 -18.640625 "/></g></g></g><g fill="#d9ccbc" fill-opacity="1"><g transform="translate(136.480339, 63.954012)"><g><path d="M 4.355469 0 L 11.542969 0 L 16.074219 -7.316406 L 39.460938 -7.316406 L 43.992188 0 L 51.222656 0 L 31.710938 -31.492188 L 23.871094 -31.492188 Z M 19.46875 -12.71875 L 27.746094 -25.917969 L 36.109375 -12.71875 Z M 19.46875 -12.71875 "/></g></g></g><g fill="#d9ccbc" fill-opacity="1"><g transform="translate(185.998361, 63.954012)"><g><path d="M 4.355469 0 L 11.238281 0 L 11.238281 -23.257812 L 37.851562 0 L 44.558594 0 L 44.558594 -31.492188 L 37.675781 -31.492188 L 37.675781 -8.230469 L 11.019531 -31.492188 L 4.355469 -31.492188 Z M 4.355469 0 "/></g></g></g><g fill="#d9ccbc" fill-opacity="1"><g transform="translate(228.852901, 63.954012)"><g><path d="M 4.355469 0 L 20.949219 0 C 36.109375 0 44.210938 -7.144531 44.210938 -15.769531 C 44.210938 -24.480469 36.109375 -31.492188 20.949219 -31.492188 L 4.355469 -31.492188 Z M 11.238281 -5.402344 L 11.238281 -26.089844 L 20.949219 -26.089844 C 32.363281 -26.089844 37.285156 -21.472656 37.285156 -15.769531 C 37.285156 -10.0625 32.363281 -5.402344 20.949219 -5.402344 Z M 11.238281 -5.402344 "/></g></g></g><g fill="#000000" fill-opacity="1"><g transform="translate(23.825619, 65.678577)"><g><path d="M -4.601562 9.488281 C -4.433594 9.546875 -4.316406 9.488281 -4.203125 9.316406 C -4.089844 9.089844 -3.976562 8.863281 -3.921875 8.636719 L -1.363281 1.703125 C 3.183594 -10.625 7.558594 -23.011719 13.183594 -34.828125 C 13.523438 -35.566406 13.976562 -35.910156 14.773438 -35.910156 C 21.535156 -35.910156 28.183594 -36.761719 34.828125 -37.328125 C 38.464844 -37.671875 42.046875 -38.183594 45.683594 -38.464844 C 46.078125 -38.523438 46.476562 -38.636719 46.875 -38.691406 C 47.101562 -38.75 47.214844 -38.921875 47.214844 -39.148438 C 47.160156 -39.375 46.933594 -39.375 46.761719 -39.375 C 46.136719 -39.316406 45.625 -39.203125 45 -39.089844 C 40.058594 -38.578125 35.113281 -38.183594 30.113281 -37.785156 C 25.339844 -37.386719 20.511719 -37.214844 15.738281 -36.816406 L 14.886719 -36.761719 C 14.261719 -36.816406 14.203125 -36.933594 14.433594 -37.5 C 14.433594 -37.558594 14.488281 -37.671875 14.546875 -37.726562 C 17.101562 -42.898438 19.148438 -48.296875 22.5 -52.953125 C 22.671875 -53.183594 22.839844 -53.464844 22.953125 -53.695312 C 23.066406 -53.75 23.183594 -53.921875 23.296875 -53.921875 C 23.410156 -53.863281 23.351562 -53.695312 23.351562 -53.578125 C 23.351562 -53.351562 23.464844 -53.183594 23.75 -53.125 C 24.035156 -53.070312 24.148438 -53.238281 24.261719 -53.464844 L 24.375 -53.75 L 25.851562 -56.589844 C 25.964844 -56.820312 26.023438 -57.046875 26.136719 -57.214844 C 26.191406 -57.726562 25.910156 -58.011719 25.398438 -57.898438 C 25.058594 -57.726562 24.773438 -57.5 24.601562 -57.214844 C 23.636719 -56.136719 22.785156 -54.886719 21.988281 -53.695312 C 18.863281 -48.75 16.25 -43.578125 13.921875 -38.238281 C 13.125 -36.476562 13.523438 -36.703125 11.476562 -36.535156 L -3.238281 -35.683594 C -7.273438 -35.398438 -11.308594 -35.113281 -15.285156 -34.375 C -16.761719 -34.148438 -18.183594 -33.75 -19.546875 -33.183594 C -19.941406 -33.011719 -20.511719 -32.785156 -20.796875 -32.273438 C -20.964844 -32.046875 -21.078125 -31.761719 -20.910156 -31.535156 C -20.738281 -31.136719 -20.285156 -31.078125 -19.886719 -31.191406 C -19.601562 -31.25 -19.316406 -31.363281 -19.375 -31.703125 C -19.488281 -32.273438 -19.148438 -32.386719 -18.808594 -32.5 C -17.613281 -33.011719 -16.363281 -33.296875 -15.113281 -33.523438 C -11.191406 -34.203125 -7.214844 -34.546875 -3.238281 -34.828125 C 0.511719 -35.058594 4.203125 -35.285156 7.953125 -35.566406 C 9.261719 -35.625 10.511719 -35.738281 11.816406 -35.796875 C 12.671875 -35.796875 12.785156 -35.683594 12.386719 -34.886719 C 12.386719 -34.828125 12.328125 -34.714844 12.273438 -34.601562 C 6.078125 -20.511719 -0.171875 -6.308594 -4.601562 8.523438 L -4.828125 9.148438 C -4.886719 9.316406 -4.773438 9.488281 -4.601562 9.488281 Z M -4.601562 9.488281 "/></g></g></g><g fill="#000000" fill-opacity="1"><g transform="translate(30.302297, 65.678577)"><g><path d="M -3.410156 3.808594 C -3.296875 3.863281 -3.125 3.863281 -3.011719 3.75 C -2.726562 3.523438 -2.558594 3.296875 -2.328125 3.011719 C 0 0.0585938 2.726562 -2.613281 5.398438 -5.285156 C 5.683594 -5.511719 5.910156 -5.796875 6.191406 -5.683594 C 6.589844 -5.511719 6.363281 -5.058594 6.363281 -4.773438 C 6.363281 -3.636719 6.078125 -2.441406 6.023438 -1.421875 C 6.191406 0.511719 7.273438 1.078125 8.921875 0.566406 C 9.488281 0.339844 10.113281 -0.113281 10.683594 -0.511719 C 12.613281 -1.875 14.601562 -3.183594 16.535156 -4.601562 C 16.703125 -4.773438 16.816406 -4.828125 16.933594 -5 C 17.046875 -5.171875 17.101562 -5.285156 16.933594 -5.398438 C 16.875 -5.566406 16.703125 -5.566406 16.535156 -5.566406 C 16.25 -5.511719 16.136719 -5.339844 15.796875 -5.171875 C 13.921875 -4.203125 12.5 -2.671875 10.796875 -1.476562 C 10.113281 -1.023438 9.488281 -0.625 8.691406 -0.285156 C 7.5 0.171875 6.988281 -0.171875 6.875 -1.421875 C 6.761719 -2.441406 6.988281 -3.410156 7.101562 -4.433594 C 7.160156 -4.941406 7.273438 -5.339844 7.214844 -5.796875 C 7.160156 -6.589844 6.589844 -6.933594 5.910156 -6.589844 C 5.398438 -6.308594 5 -6.023438 4.601562 -5.625 C 3.011719 -4.203125 1.648438 -2.671875 0.113281 -1.136719 C -0.113281 -0.964844 -0.226562 -0.683594 -0.511719 -0.511719 C -0.566406 -0.398438 -0.625 -0.226562 -0.738281 -0.398438 C -0.851562 -0.453125 -0.851562 -0.625 -0.796875 -0.625 C -0.683594 -0.910156 -0.625 -1.078125 -0.453125 -1.421875 C 0.625 -3.464844 1.648438 -5.683594 2.613281 -7.839844 C 8.578125 -20.964844 15.226562 -33.808594 21.933594 -46.589844 C 22.441406 -47.558594 22.839844 -48.464844 23.523438 -49.375 C 23.636719 -49.546875 23.691406 -49.660156 23.75 -49.886719 C 23.863281 -50.113281 23.808594 -50.339844 23.523438 -50.511719 C 23.296875 -50.625 23.066406 -50.453125 22.953125 -50.285156 C 22.785156 -49.945312 22.558594 -49.546875 22.386719 -49.148438 C 17.273438 -40.226562 12.785156 -30.398438 8.066406 -20.851562 C 4.148438 -12.953125 0.625 -5 -3.351562 2.839844 C -3.410156 3.011719 -3.523438 3.238281 -3.523438 3.410156 C -3.523438 3.523438 -3.578125 3.691406 -3.410156 3.808594 Z M -3.410156 3.808594 "/></g></g></g><g fill="#000000" fill-opacity="1"><g transform="translate(46.153112, 65.678577)"><g><path d="M 1.191406 -1.078125 C 3.410156 -0.285156 7.441406 -0.910156 10.339844 -1.761719 C 13.238281 -2.613281 16.136719 -3.410156 18.976562 -4.316406 C 19.316406 -4.375 19.773438 -4.488281 19.660156 -5 C 19.546875 -5.453125 19.089844 -5.226562 18.75 -5.171875 C 18.691406 -5.113281 18.691406 -5.113281 18.691406 -5.113281 L 12.386719 -3.238281 C 9.773438 -2.441406 7.101562 -1.703125 4.316406 -1.476562 C 3.351562 -1.363281 2.328125 -1.476562 1.363281 -1.816406 C 0.625 -2.160156 0.398438 -2.5 0.453125 -3.296875 C 0.511719 -4.203125 0.796875 -4.546875 1.589844 -4.714844 C 2.328125 -4.886719 3.011719 -5.058594 3.75 -5.453125 C 4.546875 -5.796875 5.226562 -6.308594 5.738281 -6.988281 C 5.964844 -7.386719 6.078125 -7.785156 5.910156 -8.183594 C 5.683594 -8.578125 5.285156 -8.808594 4.773438 -8.808594 C 4.316406 -8.808594 3.921875 -8.691406 3.523438 -8.464844 C 1.648438 -7.386719 0.339844 -5.851562 -0.285156 -3.75 C -0.625 -2.441406 -0.113281 -1.535156 1.191406 -1.078125 Z M 2.160156 -5.796875 C 1.933594 -5.738281 1.816406 -5.851562 1.875 -6.023438 C 2.101562 -6.703125 3.921875 -7.953125 4.546875 -7.953125 C 4.714844 -7.953125 4.886719 -7.953125 5 -7.839844 C 5.113281 -7.671875 5 -7.5 4.886719 -7.386719 C 4.203125 -6.476562 3.238281 -6.023438 2.160156 -5.796875 Z M 2.160156 -5.796875 "/></g></g></g><g fill="#000000" fill-opacity="1"><g transform="translate(219.766324, 71.64555)"><g><path d="M 0.773438 -1.742188 C 1.5625 1.121094 8.222656 0.441406 7.332031 -1.988281 C 6.96875 -2.980469 5.707031 -3.261719 4.351562 -3.398438 C 3.390625 -3.5 1.960938 -3.609375 2.269531 -4.25 C 2.734375 -5.203125 5.929688 -4.800781 6.132812 -3.863281 L 7.355469 -3.863281 C 7.179688 -5.738281 2.625 -6.394531 1.292969 -4.746094 C 0.84375 -4.1875 1.023438 -3.515625 1.546875 -3.082031 C 2.222656 -2.53125 3.3125 -2.5 4.792969 -2.316406 C 5.15625 -2.269531 6.371094 -2.136719 6.210938 -1.519531 C 5.945312 -0.503906 2.285156 -0.542969 1.996094 -1.742188 Z M 0.773438 -1.742188 "/></g></g></g><g fill="#000000" fill-opacity="1"><g transform="translate(228.808526, 71.64555)"><g><path d="M 0.773438 0 L 1.996094 0 L 1.996094 -5.597656 L 0.773438 -5.597656 Z M 0.773438 0 "/></g></g></g><g fill="#000000" fill-opacity="1"><g transform="translate(232.439519, 71.64555)"><g><path d="M 3.679688 0 L 4.902344 0 L 4.902344 -4.636719 L 7.8125 -4.636719 L 7.8125 -5.597656 L 0.773438 -5.597656 L 0.773438 -4.636719 L 3.679688 -4.636719 Z M 3.679688 0 "/></g></g></g><g fill="#000000" fill-opacity="1"><g transform="translate(241.961687, 71.64555)"><g><path d="M 0.773438 0 L 7.21875 0 L 7.21875 -0.960938 L 2.003906 -0.960938 L 2.003906 -2.332031 L 5.785156 -2.332031 L 5.785156 -3.296875 L 2.003906 -3.296875 L 2.003906 -4.636719 L 7.21875 -4.636719 L 7.21875 -5.597656 L 0.773438 -5.597656 Z M 0.773438 0 "/></g></g></g></svg>